solid pent_prism
facet normal -0.000000e+00 0.000000e+00 -1.000000e+00
  outer loop
    vertex 4.045085e-01 2.938926e-01 0.000000e+00
    vertex -5.000000e-01 6.123234e-17 0.000000e+00
    vertex -1.545085e-01 4.755283e-01 0.000000e+00
  endloop
endfacet
facet normal 0.000000e+00 0.000000e+00 -1.000000e+00
  outer loop
    vertex 4.045085e-01 2.938926e-01 0.000000e+00
    vertex -1.545085e-01 -4.755283e-01 0.000000e+00
    vertex -5.000000e-01 6.123234e-17 0.000000e+00
  endloop
endfacet
facet normal 0.000000e+00 0.000000e+00 -1.000000e+00
  outer loop
    vertex 4.045085e-01 2.938926e-01 0.000000e+00
    vertex 4.045085e-01 -2.938926e-01 0.000000e+00
    vertex -1.545085e-01 -4.755283e-01 0.000000e+00
  endloop
endfacet
facet normal 0.000000e+00 0.000000e+00 1.000000e+00
  outer loop
    vertex 4.045085e-01 2.938926e-01 5.000000e-01
    vertex -1.545085e-01 4.755283e-01 5.000000e-01
    vertex -5.000000e-01 6.123234e-17 5.000000e-01
  endloop
endfacet
facet normal 0.000000e+00 0.000000e+00 1.000000e+00
  outer loop
    vertex 4.045085e-01 2.938926e-01 5.000000e-01
    vertex -5.000000e-01 6.123234e-17 5.000000e-01
    vertex -1.545085e-01 -4.755283e-01 5.000000e-01
  endloop
endfacet
facet normal 0.000000e+00 0.000000e+00 1.000000e+00
  outer loop
    vertex 4.045085e-01 2.938926e-01 5.000000e-01
    vertex -1.545085e-01 -4.755283e-01 5.000000e-01
    vertex 4.045085e-01 -2.938926e-01 5.000000e-01
  endloop
endfacet
facet normal 3.090170e-01 9.510565e-01 0.000000e+00
  outer loop
    vertex 4.045085e-01 2.938926e-01 0.000000e+00
    vertex -1.545085e-01 4.755283e-01 0.000000e+00
    vertex -1.545085e-01 4.755283e-01 5.000000e-01
  endloop
endfacet
facet normal 3.090170e-01 9.510565e-01 -0.000000e+00
  outer loop
    vertex 4.045085e-01 2.938926e-01 0.000000e+00
    vertex -1.545085e-01 4.755283e-01 5.000000e-01
    vertex 4.045085e-01 2.938926e-01 5.000000e-01
  endloop
endfacet
facet normal -8.090170e-01 5.877853e-01 0.000000e+00
  outer loop
    vertex -1.545085e-01 4.755283e-01 0.000000e+00
    vertex -5.000000e-01 6.123234e-17 0.000000e+00
    vertex -5.000000e-01 6.123234e-17 5.000000e-01
  endloop
endfacet
facet normal -8.090170e-01 5.877853e-01 0.000000e+00
  outer loop
    vertex -1.545085e-01 4.755283e-01 0.000000e+00
    vertex -5.000000e-01 6.123234e-17 5.000000e-01
    vertex -1.545085e-01 4.755283e-01 5.000000e-01
  endloop
endfacet
facet normal -8.090170e-01 -5.877853e-01 0.000000e+00
  outer loop
    vertex -5.000000e-01 6.123234e-17 0.000000e+00
    vertex -1.545085e-01 -4.755283e-01 0.000000e+00
    vertex -1.545085e-01 -4.755283e-01 5.000000e-01
  endloop
endfacet
facet normal -8.090170e-01 -5.877853e-01 0.000000e+00
  outer loop
    vertex -5.000000e-01 6.123234e-17 0.000000e+00
    vertex -1.545085e-01 -4.755283e-01 5.000000e-01
    vertex -5.000000e-01 6.123234e-17 5.000000e-01
  endloop
endfacet
facet normal 3.090170e-01 -9.510565e-01 0.000000e+00
  outer loop
    vertex -1.545085e-01 -4.755283e-01 0.000000e+00
    vertex 4.045085e-01 -2.938926e-01 0.000000e+00
    vertex 4.045085e-01 -2.938926e-01 5.000000e-01
  endloop
endfacet
facet normal 3.090170e-01 -9.510565e-01 0.000000e+00
  outer loop
    vertex -1.545085e-01 -4.755283e-01 0.000000e+00
    vertex 4.045085e-01 -2.938926e-01 5.000000e-01
    vertex -1.545085e-01 -4.755283e-01 5.000000e-01
  endloop
endfacet
facet normal 1.000000e+00 -9.444121e-17 0.000000e+00
  outer loop
    vertex 4.045085e-01 -2.938926e-01 0.000000e+00
    vertex 4.045085e-01 2.938926e-01 0.000000e+00
    vertex 4.045085e-01 2.938926e-01 5.000000e-01
  endloop
endfacet
facet normal 1.000000e+00 -9.444121e-17 0.000000e+00
  outer loop
    vertex 4.045085e-01 -2.938926e-01 0.000000e+00
    vertex 4.045085e-01 2.938926e-01 5.000000e-01
    vertex 4.045085e-01 -2.938926e-01 5.000000e-01
  endloop
endfacet
endsolid pent_prism
