solid tri_prism
facet normal 0.000000e+00 0.000000e+00 -1.000000e+00
  outer loop
    vertex 2.500000e-01 4.330127e-01 0.000000e+00
    vertex 2.500000e-01 -4.330127e-01 0.000000e+00
    vertex -5.000000e-01 6.123234e-17 0.000000e+00
  endloop
endfacet
facet normal 0.000000e+00 0.000000e+00 1.000000e+00
  outer loop
    vertex 2.500000e-01 4.330127e-01 5.000000e-01
    vertex -5.000000e-01 6.123234e-17 5.000000e-01
    vertex 2.500000e-01 -4.330127e-01 5.000000e-01
  endloop
endfacet
facet normal -5.000000e-01 8.660254e-01 0.000000e+00
  outer loop
    vertex 2.500000e-01 4.330127e-01 0.000000e+00
    vertex -5.000000e-01 6.123234e-17 0.000000e+00
    vertex -5.000000e-01 6.123234e-17 5.000000e-01
  endloop
endfacet
facet normal -5.000000e-01 8.660254e-01 0.000000e+00
  outer loop
    vertex 2.500000e-01 4.330127e-01 0.000000e+00
    vertex -5.000000e-01 6.123234e-17 5.000000e-01
    vertex 2.500000e-01 4.330127e-01 5.000000e-01
  endloop
endfacet
facet normal -5.000000e-01 -8.660254e-01 0.000000e+00
  outer loop
    vertex -5.000000e-01 6.123234e-17 0.000000e+00
    vertex 2.500000e-01 -4.330127e-01 0.000000e+00
    vertex 2.500000e-01 -4.330127e-01 5.000000e-01
  endloop
endfacet
facet normal -5.000000e-01 -8.660254e-01 0.000000e+00
  outer loop
    vertex -5.000000e-01 6.123234e-17 0.000000e+00
    vertex 2.500000e-01 -4.330127e-01 5.000000e-01
    vertex -5.000000e-01 6.123234e-17 5.000000e-01
  endloop
endfacet
facet normal 1.000000e+00 -4.486913e-16 0.000000e+00
  outer loop
    vertex 2.500000e-01 -4.330127e-01 0.000000e+00
    vertex 2.500000e-01 4.330127e-01 0.000000e+00
    vertex 2.500000e-01 4.330127e-01 5.000000e-01
  endloop
endfacet
facet normal 1.000000e+00 -4.486913e-16 0.000000e+00
  outer loop
    vertex 2.500000e-01 -4.330127e-01 0.000000e+00
    vertex 2.500000e-01 4.330127e-01 5.000000e-01
    vertex 2.500000e-01 -4.330127e-01 5.000000e-01
  endloop
endfacet
endsolid tri_prism
